<svg width="29" height="29" fill="none" xmlns="http://www.w3.org/2000/svg"><g clip-path="url(#clip0_81_615)" fill="#fff"><path d="M20.038 15.205c-.056.085-.056.17-.085.282a.688.688 0 00.62.732.688.688 0 00.733-.62c0-.084 0-.169.028-.31v-.31a7.45 7.45 0 00-.394-2.367c-.338-.986-.93-1.86-1.635-2.593a7.134 7.134 0 00-3.156-1.832 7.476 7.476 0 00-1.776-.225c-.197 0-.394 0-.62.028l-.592.085c-.366.056-.62.422-.535.76.056.367.422.62.76.536.17-.028.31-.056.48-.056h.084c.141 0 .282-.028.423-.028 1.55 0 2.987.62 4.002 1.662a5.678 5.678 0 011.663 3.946v.31z"/><path d="M23.758 15.825a.688.688 0 00.62.733.688.688 0 00.733-.62c.028-.31.028-.62.028-.93 0-.62-.056-1.212-.14-1.804-.367-2.255-1.466-4.284-3.016-5.834-1.776-1.775-4.143-2.931-6.764-3.128-.282-.028-.592-.028-.874-.028-.31 0-.62 0-.93.028-.31.028-.62.056-.93.112-.367.057-.62.423-.536.761.057.367.423.62.761.536.198-.028.367-.056.564-.085.085 0 .17-.028.254-.028.281-.028.563-.028.817-.028.958 0 1.86.14 2.734.395a9.369 9.369 0 013.974 2.367 9.681 9.681 0 012.113 3.185 9.527 9.527 0 01.677 3.494v.282a2.304 2.304 0 00-.085.592z"/><path d="M24.716 4.664a14.632 14.632 0 00-10.4-4.312c-.422 0-.845.029-1.267.057a9.778 9.778 0 00-1.269.169c-.366.056-.62.423-.535.76.056.367.423.62.76.536.198-.028.367-.056.564-.084.198-.028.395-.057.592-.057.395-.028.761-.056 1.156-.056 3.664 0 6.99 1.494 9.413 3.89a13.266 13.266 0 013.89 9.412v.62c0 .17-.029.339-.029.536a.688.688 0 00.62.733.688.688 0 00.733-.62 19.1 19.1 0 00.056-1.24c0-4.03-1.634-7.694-4.284-10.344zm3.241 17.079l-4.988-2.677c-1.663-.902-1.72-.31-3.467 1.55-.422.451-1.211 1.635-2.142 1.41-1.944-.48-5.58-3.326-6.763-4.623-.564-.62-2.988-3.579-3.016-4.537-.056-1.466 3.156-2.198 2.114-4.989L7.468 2.89C5.383-1.902-.452 5.764.028 9.343c1.24 8.821 16.712 23.082 25.336 18.375 1.917-1.07 4.51-4.82 2.593-5.975z"/></g><defs><clipPath id="clip0_81_615"><path fill="#fff" d="M0 0h29v29H0z"/></clipPath></defs></svg>