<svg width="65" height="69" fill="none" xmlns="http://www.w3.org/2000/svg"><path d="M29.992 14.963a7.484 7.484 0 007.487-7.482A7.484 7.484 0 0029.992 0a7.484 7.484 0 00-7.487 7.481 7.484 7.484 0 007.487 7.482zm14.665 3.334c3.76 0 6.81-3.046 6.81-6.804a6.807 6.807 0 00-6.81-6.804 6.807 6.807 0 00-6.81 6.804 6.807 6.807 0 006.81 6.804zm10.576 10.246a6.125 6.125 0 006.127-6.123 6.125 6.125 0 00-6.127-6.123 6.125 6.125 0 00-6.128 6.123 6.125 6.125 0 006.128 6.123zm8.894 9.541a5.442 5.442 0 00-4.503-6.243 5.442 5.442 0 10-1.745 10.743 5.445 5.445 0 006.248-4.5zm-9.89 18.396a4.762 4.762 0 004.764-4.76c0-2.63-2.133-4.76-4.764-4.76a4.762 4.762 0 00-4.764 4.76c0 2.63 2.133 4.76 4.764 4.76zm-11.288 9.513a4.085 4.085 0 004.086-4.083 4.085 4.085 0 00-4.086-4.083 4.085 4.085 0 00-4.087 4.083 4.085 4.085 0 004.087 4.084zm-14.907 2.329a3.403 3.403 0 003.405-3.402 3.403 3.403 0 00-3.405-3.402 3.403 3.403 0 00-3.405 3.402 3.403 3.403 0 003.405 3.402zm-14.364-5.679a2.722 2.722 0 10-2.722-2.72 2.722 2.722 0 002.723 2.72zM3.869 50.346a2.04 2.04 0 10.001-4.081 2.04 2.04 0 00-.001 4.08zM1.363 34.678a1.363 1.363 0 10.001-2.726 1.363 1.363 0 000 2.726zm5.49-14.856a.682.682 0 11-.016-1.363.682.682 0 01.016 1.363z" fill="#3BDE7C"/></svg>